# xmcd
#
# Track frame offsets:
#	150
#	18835
#	37765
#	55864
#	78365
#	97723
#	125177
#	146126
#	169074
#	186088
#
# Disc length: 2771 seconds
#
# Revision: 2
# Processed by: cddbd v1.5.1PL0 Copyright (c) Steve Scherf et al.
# Submitted via: audiograbber 1.81.02
#
DISCID=780ad10a
DTITLE=Hanjo Gäbler - Playback-CD Songs for Gospel 1
DYEAR=2005
DGENRE=Gospel
TTITLE0=The Lord Never Fails
TTITLE1=The Privilege
TTITLE2=He Came To Save Me
TTITLE3=I Waited Patiently
TTITLE4=King Of Kings
TTITLE5=You Don't Have To Be Afraid
TTITLE6=Please Lord Take Time
TTITLE7=My God
TTITLE8=You're My Brother
TTITLE9=When God Says It's Over
EXTD=
EXTT0=
EXTT1=
EXTT2=
EXTT3=
EXTT4=
EXTT5=
EXTT6=
EXTT7=
EXTT8=
EXTT9=
PLAYORDER=
